# xmcd
#
# Track frame offsets:
#	150
#	9961
#	43487
#	61470
#	78301
#	112402
#	134153
#	150703
#	183678
#	199860
#	226247
#	249985
#	287592
#	312877
#
# Disc length: 4692 seconds
#
# Revision: 1
# Processed by: cddbd v1.5.2PL0 Copyright (c) Steve Scherf et al.
# Submitted via: audiograbber 1.83.01
#
DISCID=cb12520e
DTITLE=Grateful Dead - 73-11-20A Denver Coliseum, Denver CO
DYEAR=1900
DGENRE=
TTITLE0=Tuning
TTITLE1=Ramble On Rose
TTITLE2=Mexicali Blues
TTITLE3=Don't Ease Me In
TTITLE4=Black Throated Wind
TTITLE5=Brown Eyed Women
TTITLE6=BIODTL
TTITLE7=To Lay Me Down
TTITLE8=The Race Is One
TTITLE9=They Love Each Other
TTITLE10=Me and Bobby McGee
TTITLE11=Tennessee Jed
TTITLE12=Big River
TTITLE13=Row Jimmy
EXTD=
EXTT0=
EXTT1=
EXTT2=
EXTT3=
EXTT4=
EXTT5=
EXTT6=
EXTT7=
EXTT8=
EXTT9=
EXTT10=
EXTT11=
EXTT12=
EXTT13=
PLAYORDER=
